<svg xmlns="http://www.w3.org/2000/svg" xmlns:xlink="http://www.w3.org/1999/xlink" width="1000" zoomAndPan="magnify" viewBox="0 0 750 749.999995" height="1000" preserveAspectRatio="xMidYMid meet" version="1.0"><defs><g/></defs><g fill="#37268c" fill-opacity="0.4"><g transform="translate(115.065305, 365.392166)"><g><path d="M 134.128906 -124.203125 L 119.554688 -51.324219 L 98 -124.359375 L 72.414062 -124.359375 L 72.414062 -124.203125 L 51.015625 -51.324219 L 36.285156 -124.203125 L 10.855469 -124.203125 L 35.972656 0 L 61.40625 0 L 85.285156 -80.941406 L 109.164062 0 L 134.59375 0 L 159.558594 -124.203125 Z M 134.128906 -124.203125 "/></g></g></g><g fill="#37268c" fill-opacity="0.4"><g transform="translate(285.478909, 365.392166)"><g><path d="M 82.804688 -101.101562 L 82.804688 -124.203125 L 10.855469 -124.203125 L 10.855469 0 L 82.804688 0 L 82.804688 -23.105469 L 34.113281 -23.105469 L 34.113281 -50.707031 L 63.109375 -50.707031 L 63.109375 -73.808594 L 34.113281 -73.808594 L 34.113281 -101.101562 Z M 82.804688 -101.101562 "/></g></g></g><g fill="#37268c" fill-opacity="0.4"><g transform="translate(379.136608, 365.392166)"><g><path d="M 84.042969 0 L 108.234375 0 L 71.792969 -123.738281 L 71.792969 -124.050781 L 47.449219 -124.050781 L 10.855469 0 L 35.199219 0 L 44.347656 -30.859375 L 74.894531 -30.859375 Z M 51.171875 -53.960938 L 59.699219 -82.804688 L 68.074219 -53.960938 Z M 51.171875 -53.960938 "/></g></g></g><g fill="#37268c" fill-opacity="0.4"><g transform="translate(498.224554, 365.392166)"><g><path d="M 107.769531 -77.53125 C 107.769531 -103.273438 95.984375 -124.050781 64.351562 -124.050781 L 10.855469 -124.050781 L 10.855469 0 L 34.113281 0 L 34.113281 -30.859375 L 64.351562 -30.859375 C 67.140625 -30.859375 69.777344 -31.011719 72.257812 -31.324219 L 83.421875 0 L 107.769531 0 L 93.65625 -39.695312 C 103.890625 -48.222656 107.769531 -62.023438 107.769531 -77.53125 Z M 34.113281 -54.117188 L 34.113281 -100.945312 L 64.351562 -100.945312 C 75.824219 -100.945312 78.925781 -97.070312 80.011719 -95.828125 C 82.957031 -92.105469 84.507812 -85.59375 84.507812 -77.53125 C 84.507812 -69.003906 82.957031 -62.488281 80.167969 -59.078125 C 77.53125 -55.667969 72.257812 -54.117188 64.351562 -54.117188 Z M 34.113281 -54.117188 "/></g></g></g><g fill="#2e245e" fill-opacity="1"><g transform="translate(124.113278, 361.918978)"><g><path d="M 134.128906 -124.203125 L 119.554688 -51.324219 L 98 -124.359375 L 72.414062 -124.359375 L 72.414062 -124.203125 L 51.015625 -51.324219 L 36.285156 -124.203125 L 10.855469 -124.203125 L 35.972656 0 L 61.40625 0 L 85.285156 -80.941406 L 109.164062 0 L 134.59375 0 L 159.558594 -124.203125 Z M 134.128906 -124.203125 "/></g></g></g><g fill="#2e245e" fill-opacity="1"><g transform="translate(294.526882, 361.918978)"><g><path d="M 82.804688 -101.101562 L 82.804688 -124.203125 L 10.855469 -124.203125 L 10.855469 0 L 82.804688 0 L 82.804688 -23.105469 L 34.113281 -23.105469 L 34.113281 -50.707031 L 63.109375 -50.707031 L 63.109375 -73.808594 L 34.113281 -73.808594 L 34.113281 -101.101562 Z M 82.804688 -101.101562 "/></g></g></g><g fill="#2e245e" fill-opacity="1"><g transform="translate(388.184581, 361.918978)"><g><path d="M 84.042969 0 L 108.234375 0 L 71.792969 -123.738281 L 71.792969 -124.050781 L 47.449219 -124.050781 L 10.855469 0 L 35.199219 0 L 44.347656 -30.859375 L 74.894531 -30.859375 Z M 51.171875 -53.960938 L 59.699219 -82.804688 L 68.074219 -53.960938 Z M 51.171875 -53.960938 "/></g></g></g><g fill="#2e245e" fill-opacity="1"><g transform="translate(507.272527, 361.918978)"><g><path d="M 107.769531 -77.53125 C 107.769531 -103.273438 95.984375 -124.050781 64.351562 -124.050781 L 10.855469 -124.050781 L 10.855469 0 L 34.113281 0 L 34.113281 -30.859375 L 64.351562 -30.859375 C 67.140625 -30.859375 69.777344 -31.011719 72.257812 -31.324219 L 83.421875 0 L 107.769531 0 L 93.65625 -39.695312 C 103.890625 -48.222656 107.769531 -62.023438 107.769531 -77.53125 Z M 34.113281 -54.117188 L 34.113281 -100.945312 L 64.351562 -100.945312 C 75.824219 -100.945312 78.925781 -97.070312 80.011719 -95.828125 C 82.957031 -92.105469 84.507812 -85.59375 84.507812 -77.53125 C 84.507812 -69.003906 82.957031 -62.488281 80.167969 -59.078125 C 77.53125 -55.667969 72.257812 -54.117188 64.351562 -54.117188 Z M 34.113281 -54.117188 "/></g></g></g><g fill="#ffffff" fill-opacity="0.4"><g transform="translate(142.831991, 516.272018)"><g><path d="M 104.046875 -124.050781 L 10.855469 -124.050781 L 10.855469 -100.945312 L 45.898438 -100.945312 L 45.898438 0 L 69.003906 0 L 69.003906 -100.945312 L 104.046875 -100.945312 Z M 104.046875 -124.050781 "/></g></g></g><g fill="#ffffff" fill-opacity="0.4"><g transform="translate(257.723753, 516.272018)"><g><path d="M 84.042969 0 L 108.234375 0 L 71.792969 -123.738281 L 71.792969 -124.050781 L 47.449219 -124.050781 L 10.855469 0 L 35.199219 0 L 44.347656 -30.855469 L 74.894531 -30.855469 Z M 51.171875 -53.960938 L 59.699219 -82.804688 L 68.070312 -53.960938 Z M 51.171875 -53.960938 "/></g></g></g><g fill="#ffffff" fill-opacity="0.4"><g transform="translate(376.801838, 516.272018)"><g><path d="M 80.011719 0 L 107.769531 0 L 63.730469 -65.125 L 106.371094 -124.050781 L 79.855469 -124.050781 L 34.113281 -61.09375 L 34.113281 -124.050781 L 10.855469 -124.050781 L 10.855469 0 L 34.113281 0 L 34.113281 -24.5 L 49.464844 -45.742188 Z M 80.011719 0 "/></g></g></g><g fill="#ffffff" fill-opacity="0.4"><g transform="translate(495.414775, 516.272018)"><g><path d="M 82.804688 -101.101562 L 82.804688 -124.203125 L 10.855469 -124.203125 L 10.855469 0 L 82.804688 0 L 82.804688 -23.105469 L 34.113281 -23.105469 L 34.113281 -50.707031 L 63.109375 -50.707031 L 63.109375 -73.808594 L 34.113281 -73.808594 L 34.113281 -101.101562 Z M 82.804688 -101.101562 "/></g></g></g><g fill="#000000" fill-opacity="1"><g transform="translate(151.879979, 512.798815)"><g><path d="M 104.046875 -124.050781 L 10.855469 -124.050781 L 10.855469 -100.945312 L 45.898438 -100.945312 L 45.898438 0 L 69.003906 0 L 69.003906 -100.945312 L 104.046875 -100.945312 Z M 104.046875 -124.050781 "/></g></g></g><g fill="#000000" fill-opacity="1"><g transform="translate(266.77174, 512.798815)"><g><path d="M 84.042969 0 L 108.234375 0 L 71.792969 -123.738281 L 71.792969 -124.050781 L 47.449219 -124.050781 L 10.855469 0 L 35.199219 0 L 44.347656 -30.855469 L 74.894531 -30.855469 Z M 51.171875 -53.960938 L 59.699219 -82.804688 L 68.070312 -53.960938 Z M 51.171875 -53.960938 "/></g></g></g><g fill="#000000" fill-opacity="1"><g transform="translate(385.849826, 512.798815)"><g><path d="M 80.011719 0 L 107.769531 0 L 63.730469 -65.125 L 106.371094 -124.050781 L 79.855469 -124.050781 L 34.113281 -61.09375 L 34.113281 -124.050781 L 10.855469 -124.050781 L 10.855469 0 L 34.113281 0 L 34.113281 -24.5 L 49.464844 -45.742188 Z M 80.011719 0 "/></g></g></g><g fill="#000000" fill-opacity="1"><g transform="translate(504.462763, 512.798815)"><g><path d="M 82.804688 -101.101562 L 82.804688 -124.203125 L 10.855469 -124.203125 L 10.855469 0 L 82.804688 0 L 82.804688 -23.105469 L 34.113281 -23.105469 L 34.113281 -50.707031 L 63.109375 -50.707031 L 63.109375 -73.808594 L 34.113281 -73.808594 L 34.113281 -101.101562 Z M 82.804688 -101.101562 "/></g></g></g></svg>